<svg id="ee4siMjr6JF1" xmlns="http://www.w3.org/2000/svg" xmlns:xlink="http://www.w3.org/1999/xlink" viewBox="0 0 300 300" shape-rendering="geometricPrecision" text-rendering="geometricPrecision"><path d="M20,50L70,30l40,10q0,20,0,30t-10,40h-60L20,70v-20Z" fill="none" stroke="#3f5787" stroke-width="0.6"/><path d="M190,70l40-30l50,10v50l-20,40-70-40v-30Z" fill="none" stroke="#3f5787" stroke-width="0.6"/><path d="M65,190l25.00457,30.045306L130,250l130-50h10l-70-10h-135Z" fill="none" stroke="#3f5787" stroke-width="0.6"/><path d="M100,230l10-40l40,50l17.5-50L190,220v0l30-30q-10,0,0,0t0,0l15,20v0l5-10-140,30l20-9.954694" fill="none" stroke="#3f5787" stroke-width="0.6"/><path d="M40,50L50,90L80,50" fill="none" stroke="#3f5787" stroke-width="0.6"/><path d="M220,70l15,40l25-40" fill="none" stroke="#3f5787" stroke-width="0.6"/></svg>